<svg width="890" height="642" viewBox="0 0 890 642" fill="none" xmlns="http://www.w3.org/2000/svg">
<g clip-path="url(#clip0_201_14)">
<g clip-path="url(#clip1_201_14)">
<path d="M-384.366 737.852L-750.153 512.286L-524.415 146.218C-399.936 -55.6412 -134.58 -118.657 67.1113 5.71729C268.802 130.092 331.63 395.505 207.16 597.351C82.6909 799.196 -182.675 862.226 -384.366 737.852ZM-645.645 487.462L-344.468 673.185C-178.408 775.588 40.0823 723.704 142.572 557.502C245.062 391.299 193.336 172.784 27.2611 70.3726C-138.814 -32.0392 -357.29 19.8539 -459.78 186.056L-645.645 487.462Z" fill="#4FAED8" stroke="#4FAED8" stroke-width="40" stroke-miterlimit="10"/>
<path d="M279.778 419.64L568.286 738.188L249.651 1027.01C73.9628 1186.28 -198.409 1172.94 -357.494 997.291C-516.587 821.651 -503.069 549.177 -327.367 389.917C-151.679 230.649 120.693 243.986 279.778 419.64ZM461.019 732.934L223.469 470.67C92.4948 326.056 -131.754 315.083 -276.408 446.201C-421.061 577.319 -432.183 801.653 -301.209 946.267C-170.235 1090.88 54.0146 1101.85 198.677 970.721L461.013 732.91L461.019 732.934Z" fill="#4FAED8" stroke="#4FAED8" stroke-width="40" stroke-miterlimit="10"/>
</g>
</g>
<defs>
<clipPath id="clip0_201_14">
<rect width="890" height="642" fill="white"/>
</clipPath>
<clipPath id="clip1_201_14">
<rect width="1317.32" height="1152.35" fill="white" transform="translate(-404.25 -232) rotate(25.041)"/>
</clipPath>
</defs>
</svg>
